<?xml version="1.0" standalone="no"?><!-- Generator: Gravit.io --><svg xmlns="http://www.w3.org/2000/svg" xmlns:xlink="http://www.w3.org/1999/xlink" style="isolation:isolate" viewBox="0 0 595.276 841.89" width="595.276" height="841.89"><defs><clipPath id="_clipPath_z5FLMZvjRknmy23VQk52q9KZCGAmZFi6"><rect width="595.276" height="841.89"/></clipPath></defs><g clip-path="url(#_clipPath_z5FLMZvjRknmy23VQk52q9KZCGAmZFi6)"><path d=" M 144.417 137.48 L 450.859 137.48 C 522.742 137.48 581.102 195.841 581.102 267.724 L 581.102 574.166 C 581.102 646.049 522.742 704.409 450.859 704.409 L 352.423 704.409 L 270.17 704.409 L 144.417 704.409 C 72.533 704.409 14.173 646.049 14.173 574.166 L 14.173 267.724 C 14.173 195.841 72.533 137.48 144.417 137.48 Z  M 352.423 498.777 L 422.543 498.777 L 432.866 416.895 L 352.382 416.895 L 352.382 366.844 C 352.382 343.648 359.99 327.856 393.22 327.856 L 434.305 327.856 L 434.305 256.173 C 414.216 253.968 394.018 252.911 373.809 253.006 C 312.654 253.006 270.417 290.349 270.417 358.906 L 270.17 416.525 L 187.917 416.525 L 187.917 498.777 L 270.17 498.777 L 270.17 704.409 L 352.423 704.409 L 352.423 498.777 Z " fill-rule="evenodd" fill="rgb(255,255,255)"/></g></svg>