<?xml version="1.0" standalone="no"?><!-- Generator: Gravit.io --><svg xmlns="http://www.w3.org/2000/svg" xmlns:xlink="http://www.w3.org/1999/xlink" style="isolation:isolate" viewBox="0 0 595.276 841.89" width="595.276" height="841.89"><defs><clipPath id="_clipPath_coa3kW2oLomQ8htjXDhk1IG6pVnIwV0B"><rect width="595.276" height="841.89"/></clipPath></defs><g clip-path="url(#_clipPath_coa3kW2oLomQ8htjXDhk1IG6pVnIwV0B)"><path d=" M 144.417 137.48 L 450.859 137.48 C 522.742 137.48 581.102 195.841 581.102 267.724 L 581.102 574.166 C 581.102 646.049 522.742 704.409 450.859 704.409 L 144.417 704.409 C 72.533 704.409 14.173 646.049 14.173 574.166 L 14.173 267.724 C 14.173 195.841 72.533 137.48 144.417 137.48 Z  M 297.638 208.346 C 176.937 208.346 78.181 307.102 78.181 427.803 C 78.181 521.072 136.703 600.625 218.085 632.629 C 226.314 630.8 233.63 623.485 233.63 614.341 L 233.63 574.107 L 209.855 574.107 C 192.482 574.107 177.851 565.878 170.536 553.076 C 168.707 549.418 166.878 544.846 165.05 540.274 C 161.392 530.216 156.82 519.243 147.676 512.842 C 144.018 510.099 142.189 504.613 143.104 500.041 C 144.933 495.469 149.505 491.811 157.734 492.725 C 166.878 493.64 180.594 503.698 188.824 514.671 C 196.139 523.815 201.626 529.301 212.598 529.301 L 215.342 529.301 C 223.571 529.301 243.688 529.301 247.346 525.644 C 250.089 521.986 251.918 519.243 254.661 516.5 C 199.797 505.527 168.707 473.523 168.707 425.06 C 168.707 408.6 173.279 392.141 183.338 377.511 C 179.68 363.795 171.45 328.133 188.824 312.588 L 191.567 309.845 L 195.225 309.845 C 218.999 309.845 236.373 319.903 247.346 328.133 C 279.35 316.246 315.926 316.246 347.93 328.133 C 357.988 319.903 375.362 309.845 400.051 309.845 L 403.708 309.845 L 406.452 312.588 C 423.825 329.047 415.596 363.795 411.938 377.511 C 421.082 392.141 426.568 408.6 426.568 425.06 C 426.568 473.523 395.479 505.527 341.529 516.5 C 355.245 531.13 362.56 553.076 362.56 570.45 L 362.56 615.255 C 362.56 624.399 368.961 631.715 378.105 633.543 C 458.573 600.625 517.094 521.072 517.094 427.803 C 517.094 307.102 418.339 208.346 297.638 208.346 Z " fill-rule="evenodd" fill="rgb(255,255,255)"/></g></svg>