<?xml version="1.0" standalone="no"?><!-- Generator: Gravit.io --><svg xmlns="http://www.w3.org/2000/svg" xmlns:xlink="http://www.w3.org/1999/xlink" style="isolation:isolate" viewBox="0 0 595.276 841.89" width="595.276" height="841.89"><defs><clipPath id="_clipPath_FZYSumQUNXnYjLXwBVNh8LXPJinQYHTn"><rect width="595.276" height="841.89"/></clipPath></defs><g clip-path="url(#_clipPath_FZYSumQUNXnYjLXwBVNh8LXPJinQYHTn)"><path d=" M 144.417 137.48 L 450.859 137.48 C 522.742 137.48 581.102 195.841 581.102 267.724 L 581.102 574.166 C 581.102 646.049 522.742 704.409 450.859 704.409 L 144.417 704.409 C 72.533 704.409 14.173 646.049 14.173 574.166 L 14.173 267.724 C 14.173 195.841 72.533 137.48 144.417 137.48 Z  M 474.803 243.78 L 120.472 243.78 C 96.112 243.78 76.403 263.711 76.403 288.071 L 76.181 553.819 C 76.181 578.179 96.112 598.11 120.472 598.11 L 474.803 598.11 C 499.163 598.11 519.094 578.179 519.094 553.819 L 519.094 288.071 C 519.094 263.711 499.163 243.78 474.803 243.78 M 474.803 553.819 L 120.472 553.819 L 120.472 332.362 L 297.638 443.091 L 474.803 332.362 L 474.803 553.819 M 297.638 398.799 L 120.472 288.071 L 474.803 288.071 L 297.638 398.799 M 474.803 243.78 Z " fill-rule="evenodd" fill="rgb(255,255,255)"/></g></svg>