<?xml version="1.0" standalone="no"?><!-- Generator: Gravit.io --><svg xmlns="http://www.w3.org/2000/svg" xmlns:xlink="http://www.w3.org/1999/xlink" style="isolation:isolate" viewBox="0 0 595.276 841.89" width="595.276" height="841.89"><defs><clipPath id="_clipPath_YRkW2uvunsXnsNEt4d7uiRyfggquftUR"><rect width="595.276" height="841.89"/></clipPath></defs><g clip-path="url(#_clipPath_YRkW2uvunsXnsNEt4d7uiRyfggquftUR)"><path d=" M 144.417 137.48 C 72.533 137.48 14.173 195.841 14.173 267.724 L 14.173 574.166 C 14.173 646.049 72.533 704.409 144.417 704.409 L 450.859 704.409 C 522.742 704.409 581.102 646.049 581.102 574.166 L 581.102 267.724 C 581.102 195.841 522.742 137.48 450.859 137.48 L 144.417 137.48 M 481.545 323.117 L 481.545 266.415 L 443.743 266.415 L 443.743 323.117 L 387.041 323.117 L 387.041 360.918 L 443.743 360.918 L 443.743 417.62 L 481.545 417.62 L 481.545 360.918 L 538.246 360.918 L 538.246 323.117 L 481.545 323.117 M 144.417 137.48 Z  M 393.744 386.897 L 392.799 383.117 L 227.135 383.117 L 227.135 439.819 L 340.538 439.819 C 331.523 493.44 283.307 534.322 227.135 534.322 C 164.504 534.322 113.731 483.549 113.731 420.918 C 113.731 358.287 164.504 307.514 227.135 307.514 C 255.486 307.514 281.342 317.985 301.225 335.204 L 341.88 295.399 C 292.125 249.935 220.219 238.134 158.542 265.312 C 96.866 292.49 57.052 353.519 57.029 420.918 C 57.029 514.873 133.18 591.024 227.135 591.024 C 321.09 591.024 397.24 514.873 397.24 420.918 C 397.24 409.256 395.993 397.897 393.744 386.897 Z " fill-rule="evenodd" fill="rgb(255,255,255)"/></g></svg>