<?xml version="1.0" standalone="no"?><!-- Generator: Gravit.io --><svg xmlns="http://www.w3.org/2000/svg" xmlns:xlink="http://www.w3.org/1999/xlink" style="isolation:isolate" viewBox="0 0 595.276 841.89" width="595.276" height="841.89"><defs><clipPath id="_clipPath_tXfGiPMLmPYBdLYTTpri21HpsfAxw6bT"><rect width="595.276" height="841.89"/></clipPath></defs><g clip-path="url(#_clipPath_tXfGiPMLmPYBdLYTTpri21HpsfAxw6bT)"><path d=" M 144.417 137.48 L 450.859 137.48 C 522.742 137.48 581.102 195.841 581.102 267.724 L 581.102 574.166 C 581.102 646.049 522.742 704.409 450.859 704.409 L 144.417 704.409 C 72.533 704.409 14.173 646.049 14.173 574.166 L 14.173 267.724 C 14.173 195.841 72.533 137.48 144.417 137.48 M 297.638 347.89 C 257.355 347.89 224.583 380.662 224.583 420.945 C 224.583 461.227 257.355 494 297.638 494 C 337.92 494 370.693 461.227 370.693 420.945 C 370.693 380.662 337.92 347.89 297.638 347.89 M 144.417 137.48 M 388.23 212.583 L 207.046 212.583 C 142.109 212.583 89.276 265.416 89.276 330.353 L 89.276 511.537 C 89.276 576.474 142.109 629.307 207.046 629.307 L 388.23 629.307 C 453.167 629.307 506 576.474 506 511.537 L 506 330.353 C 506 265.416 453.167 212.583 388.23 212.583 M 297.638 529.656 C 237.693 529.656 188.927 480.89 188.927 420.945 C 188.927 361 237.693 312.234 297.638 312.234 C 357.583 312.234 406.349 361 406.349 420.945 C 406.349 480.89 357.583 529.656 297.638 529.656 M 415.408 321.293 C 408.84 321.442 402.706 318.023 399.377 312.359 C 396.049 306.695 396.047 299.673 399.373 294.008 C 402.698 288.342 408.831 284.92 415.399 285.066 C 425.245 285.283 433.114 293.326 433.117 303.175 C 433.119 313.024 425.254 321.071 415.408 321.293 M 388.23 212.583 M 144.417 137.48 Z " fill-rule="evenodd" fill="rgb(255,255,255)"/></g></svg>