<?xml version="1.0" standalone="no"?><!-- Generator: Gravit.io --><svg xmlns="http://www.w3.org/2000/svg" xmlns:xlink="http://www.w3.org/1999/xlink" style="isolation:isolate" viewBox="0 0 448 512" width="448" height="512"><defs><clipPath id="_clipPath_LCqfgekigGAdTnPnYmym1LPrAmFkyled"><rect width="448" height="512"/></clipPath></defs><g clip-path="url(#_clipPath_LCqfgekigGAdTnPnYmym1LPrAmFkyled)"><path d=" M 344 56 L 104 56 C 59.888 56 24 91.888 24 136 L 24 376 C 24 420.112 59.888 456 104 456 L 344 456 C 388.112 456 424 420.112 424 376 L 424 136 C 424 91.888 388.112 56 344 56 Z  M 152 335.2 L 152 392 L 88 392 L 88 208 L 152 208 L 152 335.2 Z  M 120 188 C 100.8 188 88 174.4 88 157.6 C 88 140.8 100.8 128 120 128 C 139.2 128 151.2 140.8 152 157.6 C 152 174.4 140 188 120 188 Z  M 360 392 L 296 392 L 296 288 C 296 280.8 295.2 256 268 256 C 244 256 240 279.2 240 288 L 240 392 L 176 392 L 176 208 L 240 208 L 240 232.8 C 240 232.8 252.8 208 290.4 208 C 328.8 208 360 234.4 360 288 L 360 392 Z " fill="rgb(255,255,255)"/></g></svg>