<svg xmlns="http://www.w3.org/2000/svg" viewBox="0 0 628.92 628.92"><defs><style>.cls-1{fill:#fff;}</style></defs><title>logo</title><g id="Layer_2" data-name="Layer 2"><g id="Layer_1-2" data-name="Layer 1"><path d="M0,459.94V169c.6-3.93,1.28-7.84,1.8-11.78C11.74,81.54,70.51,18.71,145.43,3.83,153.22,2.28,161.13,1.26,169,0h290c4.26.61,8.52,1.25,12.78,1.81,75.76,10,138.66,68.86,153.37,143.6,1.54,7.81,2.57,15.71,3.83,23.57v291c-.6,3.93-1.28,7.84-1.8,11.78-10,75.73-68.67,138.46-143.6,153.36-8.13,1.61-16.38,2.58-24.58,3.84H169c-6.06-.93-12.12-1.8-18.16-2.81C78,614,18.11,555.94,3.83,483.51,2.29,475.71,1.26,467.8,0,459.94ZM314,583.27c44,0,88,.17,132,0,76.71-.36,136.89-59.94,137.25-136.55q.63-132.21,0-264.43C582.81,105.83,522.84,46,446.43,45.73q-132-.51-263.93,0C105.73,46,45.79,106.47,45.67,183.24q-.18,130.71.1,261.43a146,146,0,0,0,2.93,30.25c13.81,64,68.53,108,134.29,108.32C226.64,583.43,270.3,583.27,314,583.27Z"/><path class="cls-1" d="M628.92,169c-1.26-7.86-2.29-15.76-3.83-23.57C610.38,70.67,547.48,11.83,471.72,1.81,467.46,1.25,463.2.61,458.94,0h170Z"/><path class="cls-1" d="M458.94,628.92c8.2-1.26,16.45-2.23,24.58-3.84,74.93-14.9,133.6-77.63,143.6-153.36.52-3.94,1.2-7.85,1.8-11.78v169Z"/><path class="cls-1" d="M169,0c-7.85,1.26-15.76,2.28-23.55,3.83C70.51,18.71,11.74,81.54,1.8,157.2,1.28,161.14.6,165.05,0,169V0Z"/><path class="cls-1" d="M0,459.94c1.26,7.86,2.29,15.77,3.83,23.57C18.11,555.94,78,614,150.82,626.11c6,1,12.1,1.88,18.16,2.81H0Z"/><path class="cls-1" d="M314,583.27c-43.65,0-87.31.16-131,0-65.76-.3-120.48-44.33-134.29-108.32a146,146,0,0,1-2.93-30.25q-.33-130.73-.1-261.43C45.79,106.47,105.73,46,182.5,45.73q132-.51,263.93,0c76.41.3,136.38,60.1,136.74,136.52q.63,132.22,0,264.43c-.36,76.61-60.54,136.19-137.25,136.55C401.93,583.44,357.94,583.27,314,583.27Zm44.1-203.5c0-15,.18-29.15-.11-43.3-.09-4.42,1.05-6.56,5.43-8.28a133.44,133.44,0,0,0,80.41-159.62C425.94,102.76,361.35,61.27,293.35,72,235,81.13,188.24,130.2,182.2,188.55c-6.41,62,27.85,118,86,140.38,3.29,1.27,4.63,2.69,4.56,6.37-.24,13.16-.08,26.32-.1,39.49,0,1.59-.19,3.19-.32,5.24H228.62l86.7,115.81L402.2,379.77Zm-44,179.72c10.41-1.14,20.9-1.8,31.22-3.49,86.24-14.11,151.5-90.8,151.57-177.87,0-11.37-7.52-19.74-18-20s-18.28,8-18.69,19.3c-.2,5.49-.4,11-1,16.44-6.54,57.57-48.2,106.46-104.51,122.78-55.73,16.15-117.23-3.24-153.37-48.42-21-26.25-32-56.14-32.56-89.83-.19-12.09-8-20.53-18.7-20.27s-18.19,8.71-17.86,20.5a213.71,213.71,0,0,0,1.7,21.89C145.75,490.84,223,558.63,314.05,559.49Z"/><path d="M358.05,379.77H402.2L315.32,495.84,228.62,380h43.69c.13-2,.31-3.65.32-5.24,0-13.17-.14-26.33.1-39.49.07-3.68-1.27-5.1-4.56-6.37-58.12-22.35-92.38-78.4-86-140.38C188.24,130.2,235,81.13,293.35,72c68-10.69,132.59,30.8,150.43,96.61a133.44,133.44,0,0,1-80.41,159.62c-4.38,1.72-5.52,3.86-5.43,8.28C358.23,350.62,358.05,364.78,358.05,379.77ZM315.21,115.85a88,88,0,1,0,87.71,87.91A87.94,87.94,0,0,0,315.21,115.85Z"/><path d="M314.05,559.49c-91.1-.86-168.3-68.65-180.19-158.94a213.71,213.71,0,0,1-1.7-21.89c-.33-11.79,7.24-20.25,17.86-20.5s18.51,8.18,18.7,20.27c.54,33.69,11.56,63.58,32.56,89.83,36.14,45.18,97.64,64.57,153.37,48.42,56.31-16.32,98-65.21,104.51-122.78.62-5.45.82-10.95,1-16.44.41-11.29,8.33-19.53,18.69-19.3s18,8.6,18,20C496.77,465.2,431.51,541.89,345.27,556,335,557.69,324.46,558.35,314.05,559.49Z"/><path class="cls-1" d="M315.21,115.85a88,88,0,1,1-88.28,87.84A88,88,0,0,1,315.21,115.85Zm52,88.71A52.33,52.33,0,1,0,314.85,257,52.39,52.39,0,0,0,367.22,204.56Z"/><path d="M367.22,204.56a52.33,52.33,0,1,1-52.49-52.43A52.18,52.18,0,0,1,367.22,204.56Z"/></g></g></svg>