<?xml version="1.0" standalone="no"?><!-- Generator: Gravit.io --><svg xmlns="http://www.w3.org/2000/svg" xmlns:xlink="http://www.w3.org/1999/xlink" style="isolation:isolate" viewBox="0 0 595.276 841.89" width="595.276" height="841.89"><defs><clipPath id="_clipPath_ALFcvfMAIEwhYFHBYD2QEDMF4BlxDuDd"><rect width="595.276" height="841.89"/></clipPath></defs><g clip-path="url(#_clipPath_ALFcvfMAIEwhYFHBYD2QEDMF4BlxDuDd)"><path d=" M 144.417 137.48 L 450.859 137.48 C 522.742 137.48 581.102 195.841 581.102 267.724 L 581.102 574.166 C 581.102 646.049 522.742 704.409 450.859 704.409 L 144.417 704.409 C 72.533 704.409 14.173 646.049 14.173 574.166 L 14.173 267.724 C 14.173 195.841 72.533 137.48 144.417 137.48 M 327.321 250.866 C 356.638 256.128 385.715 262.791 414.316 271.119 L 420.299 263.754 Q 428.255 254.449 446.536 255.469 Q 460.158 257.957 467.019 267.206 Q 473.986 274.508 473.923 288.84 Q 471.982 304.16 462.186 311.624 Q 454.463 319.781 437.33 318.528 Q 425.05 316.079 418.228 308.172 Q 412.202 301.541 410.173 290.911 Q 405.743 291.429 403.269 289.991 L 388.309 286.538 L 336.067 274.341 Q 321.797 312.083 310.981 353.28 Q 384.909 358.522 430.886 391.714 L 435.489 386.651 Q 445.155 376.985 464.027 376.525 Q 483.424 378.531 492.795 390.563 Q 503.026 400.355 502.461 420.942 Q 499.553 439.207 487.501 448.33 L 477.145 454.543 Q 479.843 464.733 478.986 478.478 Q 472.039 520.782 444.234 542.228 Q 389.728 591.516 285.435 591.019 Q 189.344 585.156 139.754 532.792 Q 115.606 511.602 114.438 467.431 Q 114.784 459.722 116.74 453.623 Q 107.423 449.592 101.55 442.116 Q 92.371 432.423 92.805 413.118 Q 95.434 395.263 106.844 386.191 Q 116.501 376.977 134.921 376.525 Q 154.014 378.375 163.229 390.103 L 163.459 390.794 C 199.999 365.278 245.012 355.306 288.887 352.82 L 294.411 333.948 L 310.751 283.086 L 316.505 264.905 C 317.007 260.212 318.794 255.57 322.718 252.707 L 327.321 250.866 M 144.417 137.48 Z " fill-rule="evenodd" fill="rgb(255,255,255)"/><path d=" M 230.201 419.331 Q 249.188 419.216 256.667 430.608 Q 263.013 437.381 263.111 450.401 Q 261.467 464.867 252.294 471.804 Q 245.004 479.243 229.28 478.248 Q 217.495 475.995 211.099 468.352 Q 203.792 461.16 203.734 446.718 Q 205.697 433.032 214.551 426.236 Q 220.49 420.898 230.201 419.331 Z  M 358.621 419.331 C 368.725 419.226 379.03 421.702 385.074 430.334 C 385.914 431.535 386.858 432.655 387.62 433.916 C 398.136 451.323 386.577 475.696 366.447 478.077 C 361.986 478.605 357.767 478.513 353.481 477.203 C 341.868 473.653 333.929 464.25 332.485 452.199 C 331.605 444.864 333.612 437.203 338.041 431.23 C 342.959 424.597 350.582 420.628 358.621 419.331 L 358.621 419.331 Z  M 232.042 516.452 C 235.745 515.954 240.45 516.086 242.628 519.674 L 242.628 519.674 L 250.914 526.118 Q 270.882 536.529 302.466 535.324 Q 328.74 535.131 345.273 525.198 Q 350.233 522.794 353.558 518.754 Q 356.254 515.466 363.224 516.452 Q 367.389 517.58 369.438 520.825 Q 371.845 523.25 371.279 528.65 Q 370.08 533.665 366.446 536.244 Q 340.665 559.024 289.578 556.497 Q 248.117 555.382 226.749 534.173 Q 223.527 531.411 223.987 524.967 Q 225.253 520.249 228.82 517.833 L 232.042 516.452 Z " fill-rule="evenodd" fill="rgb(255,255,255)"/></g></svg>