<?xml version="1.0" standalone="no"?><!-- Generator: Gravit.io --><svg xmlns="http://www.w3.org/2000/svg" xmlns:xlink="http://www.w3.org/1999/xlink" style="isolation:isolate" viewBox="0 0 595.276 841.89" width="595.276" height="841.89"><defs><clipPath id="_clipPath_gsUYMzfBqjT6KfoGcj0uBoZ0u4Ms6b3Y"><rect width="595.276" height="841.89"/></clipPath></defs><g clip-path="url(#_clipPath_gsUYMzfBqjT6KfoGcj0uBoZ0u4Ms6b3Y)"><path d=" M 148.993 142.057 L 455.435 142.057 C 527.318 142.057 585.679 200.417 585.679 272.3 L 585.679 578.742 C 585.679 650.625 527.318 708.986 455.435 708.986 L 148.993 708.986 C 77.11 708.986 18.749 650.625 18.749 578.742 L 18.749 272.3 C 18.749 200.417 77.11 142.057 148.993 142.057 Z  M 520.129 290.394 C 504.196 297.528 487.281 302.229 469.951 304.341 L 469.788 304.042 C 488.166 292.981 501.807 275.517 508.089 255.008 C 490.528 265.42 471.32 272.762 451.291 276.719 C 423.615 247.112 379.489 239.818 343.757 258.942 C 308.025 278.066 289.62 318.829 298.904 358.279 C 226.999 354.645 160.011 320.676 114.591 264.815 C 106.647 278.47 102.473 293.991 102.496 309.79 C 102.466 339.689 117.393 367.622 142.268 384.212 C 128.076 383.755 114.198 379.917 101.787 373.016 L 101.787 374.133 C 101.785 416.706 131.785 453.383 173.513 461.822 C 160.349 465.404 146.539 465.925 133.142 463.348 C 144.859 499.777 178.43 524.734 216.691 525.458 C 179.231 554.897 131.595 568.218 84.299 562.478 C 125.168 588.775 172.75 602.734 221.349 602.686 C 385.831 602.686 475.754 466.426 475.754 348.254 C 475.754 344.386 475.672 340.518 475.509 336.677 C 493.01 324.019 508.12 308.347 520.129 290.394 Z " fill-rule="evenodd" fill="rgb(255,255,255)"/></g></svg>