<?xml version="1.0" standalone="no"?><!-- Generator: Gravit.io --><svg xmlns="http://www.w3.org/2000/svg" xmlns:xlink="http://www.w3.org/1999/xlink" style="isolation:isolate" viewBox="0 0 595.276 841.89" width="595.276" height="841.89"><defs><clipPath id="_clipPath_B8j5jqEm4zxBYurBPka4UdMt6ZZTCDjN"><rect width="595.276" height="841.89"/></clipPath></defs><g clip-path="url(#_clipPath_B8j5jqEm4zxBYurBPka4UdMt6ZZTCDjN)"><path d=" M 144.417 137.48 L 450.859 137.48 C 522.742 137.48 581.102 195.841 581.102 267.724 L 581.102 574.166 C 581.102 646.049 522.742 704.409 450.859 704.409 L 144.417 704.409 C 72.533 704.409 14.173 646.049 14.173 574.166 L 14.173 267.724 C 14.173 195.841 72.533 137.48 144.417 137.48 Z  M 513.957 309.331 C 509.705 285.945 489.508 268.937 466.122 263.622 C 431.043 256.181 366.201 250.866 296.043 250.866 C 225.886 250.866 159.98 256.181 124.902 263.622 C 101.516 268.937 81.319 284.882 77.067 309.331 C 72.815 335.906 68.563 373.11 68.563 420.945 C 68.563 468.78 72.815 505.984 78.13 532.559 C 82.382 555.945 102.579 572.953 125.965 578.268 C 163.169 585.709 226.949 591.024 297.106 591.024 C 367.264 591.024 431.043 585.709 468.248 578.268 C 491.634 572.953 511.831 557.008 516.083 532.559 C 520.335 505.984 525.65 467.717 526.713 420.945 C 524.587 373.11 519.272 335.906 513.957 309.331 M 238.642 495.354 L 238.642 346.535 L 368.327 420.945 L 238.642 495.354 M 513.957 309.331 Z " fill-rule="evenodd" fill="rgb(255,255,255)"/></g></svg>